<svg xmlns="http://www.w3.org/2000/svg" width="1920" height="1009.267" viewBox="0 0 1920 1009.267">
  <path id="Path_35" data-name="Path 35" d="M2090.32,275.68V1209.5c-.031,33.606-18.6,60.838-41.514,60.882H211.834c-22.914-.045-41.483-27.276-41.513-60.882V1108.278c7.161-43.15,35.624-80.707,66.655-91.323,41.644-14.231,84.792,5.669,125.474,25.076,40.658,19.406,84.039,38.736,125.5,23.364,120.337-44.482,134.089-330.4,253.881-377.773C811.99,659.882,880.954,730.467,937.7,797.057c56.744,66.552,125.476,137.4,195.737,110.2,51.451-19.939,86.581-87.023,121.452-145.965s80.64-117.654,133.649-110.844c55.5,7.116,95.871,83.485,149.838,103.728,70.963,26.56,141.12-51.255,183.023-139.344,41.877-88.089,69.717-192.5,124.047-264.456C1910.332,264.415,2005.189,242.916,2090.32,275.68Z" transform="translate(-170.32 -261.112)" fill="#3b5afb" opacity="0.36"/>
</svg>
