<svg xmlns="http://www.w3.org/2000/svg" xmlns:xlink="http://www.w3.org/1999/xlink" width="1920" height="1080" viewBox="0 0 1920 1080">
  <defs>
    <clipPath id="clip-Artboard_3">
      <rect width="1920" height="1080"/>
    </clipPath>
  </defs>
  <g id="Artboard_3" data-name="Artboard – 3" clip-path="url(#clip-Artboard_3)">
    <rect width="1920" height="1080" fill="#fff"/>
    <g id="undraw_exams_g4ow" transform="matrix(-0.921, -0.391, 0.391, -0.921, -415.353, 992.508)">
      <path id="Path_321" data-name="Path 321" d="M1141.406,729.725v2.663q-.172,23.093-2.014,46.069a2.248,2.248,0,0,1,0,.278c-.1,1.273-.2,2.532-.312,3.8-.183,2.151-.377,4.288-.593,6.439a609.2,609.2,0,0,1-12.418,77.255h0a500.042,500.042,0,0,1-32.418,97q-6.376,13.9-13.581,26.913h0q-3.845,6.893-7.884,13.507-2.843,4.639-5.794,9.132l-1.228,1.844a390.162,390.162,0,0,1-33.388,43.113c-19.386,21.835-40.259,40.83-61.466,58.45-1.206,1.01-2.423,2-3.64,2.927a1.755,1.755,0,0,1-.269.22c-28.821,23.678-58.709,45.045-89.5,62.152-33.711,18.776-68.52,32.43-104.234,38.4-49.78,8.312-100.163,1.551-149.642-10.068a765.817,765.817,0,0,1-121.7-39.513l-6.57-2.8q-5.105-2.21-10.2-4.507-30.771-13.83-60.852-30.732c-50.367-28.187-98.483-63.292-143.6-104.767q-8.616-7.873-16.985-16.1-11.7-11.444-23.113-23.561l-4.7-4.946a580.411,580.411,0,0,1-55.811-69.645c-23.178-34.274-42.984-72.938-56.005-117.075q-3.08-10.4-5.644-21.205l-.162-.717c-.862-3.659-1.659-7.317-2.391-11.122q-1.616-8.166-2.833-16.537c-.172-1.068-.323-2.137-.463-3.22a374.1,374.1,0,0,1-3.393-56.972,354.206,354.206,0,0,1,4.308-49.757h0a283.4,283.4,0,0,1,12.2-49.128h0A193.067,193.067,0,0,1,143.779,548.4h0a133.383,133.383,0,0,1,17.588-22.332c11.686-11.825,24.642-20.064,38.073-26.576h0c6.311-3.073,12.709-5.766,19.139-8.268,4.556-1.785,9.133-3.483,13.689-5.151l13.441-4.932c8.616-3.19,17.232-6.468,25.719-10.01,23.134-9.6,45.806-21.22,66.776-38.547,3.317-2.737,6.7-5.737,10.081-8.956q6.462-6.1,12.752-13.259h0c4.243-4.829,8.4-10,12.364-15.469.614-.849,1.217-1.7,1.82-2.561,3.231-4.624,6.365-9.468,9.273-14.5,1.422-2.459,2.8-4.961,4.114-7.507,1.82-3.527,3.543-7.112,5.137-10.8h0c7.992-18.439,12.924-38.781,12.343-60.22q-.128-5.3-.7-10.551c-1.4-12.922-2.746-25.537-3.737-37.874-4.157-51.03-2.4-97.3,25.784-140.783,35.046-54.045,90.05-65.064,140.121-60.747C712.319,61.8,844.1,174.1,959.917,307.8q15.024,17.327,29.683,35.122,3.694,4.478,7.4,9.015c18.31,22.405,36.339,45.645,53.13,70.538,1.357,2.019,2.714,4.039,4.05,6.073.819,1.259,1.648,2.5,2.456,3.776q7.852,12.073,15.24,24.732a508.291,508.291,0,0,1,34.809,71.709A515.232,515.232,0,0,1,1137.249,655.6h0q2.811,24.118,3.694,48.542c.183,4.785.3,9.586.366,14.371v4.6C1141.417,725.334,1141.417,727.5,1141.406,729.725Z" transform="translate(-783.711 32.797)" fill="#6c63ff" opacity="0.1"/>
      <path id="Path_373" data-name="Path 373" d="M937.56,179l14,13S939.56,187,937.56,179Z" transform="translate(-401.716 -48.49)" opacity="0.1"/>
    </g>
    <path id="Path_374" data-name="Path 374" d="M1709.127,785.569v2.882a481.861,481.861,0,0,1-3.122,49.846,1.65,1.65,0,0,1,0,.3c-.15,1.378-.317,2.739-.484,4.117-.284,2.328-.584,4.639-.918,6.967a479.108,479.108,0,0,1-19.244,83.588h0a440.008,440.008,0,0,1-50.238,104.948q-9.881,15.042-21.047,29.119h0c-3.972,4.972-8.028,9.833-12.217,14.615q-4.406,5.019-8.979,9.88l-1.9,1.995a485.271,485.271,0,0,1-51.74,46.647c-30.042,23.624-62.388,44.177-95.251,63.241-1.869,1.092-3.755,2.169-5.641,3.167a2.741,2.741,0,0,1-.417.237c-44.663,25.62-90.979,48.738-138.7,67.248-52.24,20.315-106.183,35.088-161.528,41.548-77.142,8.994-155.219,1.678-231.894-10.894a1575.612,1575.612,0,0,1-188.6-42.752l-10.181-3.024q-7.911-2.391-15.806-4.877-47.684-14.963-94.3-33.252a1262.758,1262.758,0,0,1-222.531-113.356q-13.352-8.519-26.321-17.418-18.126-12.382-35.817-25.493l-7.277-5.352a735.128,735.128,0,0,1-86.489-75.354c-35.917-37.083-66.611-78.917-86.789-126.673q-4.773-11.258-8.746-22.943l-.25-.776c-1.335-3.959-2.57-7.917-3.705-12.034q-2.5-8.835-4.39-17.893c-.267-1.156-.5-2.312-.718-3.484a284.617,284.617,0,0,1-5.257-61.642,271.073,271.073,0,0,1,6.676-53.836h0a234.407,234.407,0,0,1,18.91-53.155h0a190.824,190.824,0,0,1,28.924-42.324h0A167.413,167.413,0,0,1,190.4,565.222c18.109-12.794,38.187-21.709,59-28.755h0c9.78-3.325,19.694-6.239,29.659-8.946,7.06-1.932,14.153-3.769,21.213-5.574l20.829-5.336c13.352-3.452,26.7-7,39.856-10.83,35.851-10.387,70.984-22.96,103.479-41.707,5.141-2.961,10.381-6.207,15.622-9.69q10.014-6.6,19.761-14.346h0c6.576-5.225,13.018-10.815,19.16-16.737.951-.918,1.886-1.837,2.821-2.771,5.007-5,9.864-10.245,14.37-15.692,2.2-2.66,4.339-5.368,6.376-8.123,2.821-3.816,5.491-7.7,7.961-11.686h0c12.384-19.951,20.028-41.96,19.127-65.157a95.238,95.238,0,0,0-1.085-11.416c-2.17-13.982-4.256-27.63-5.791-40.979-6.442-55.213-3.722-105.281,39.956-152.324,54.31-58.475,139.547-70.4,217.14-65.727,224.333,13.459,428.555,134.97,608.026,279.63q23.283,18.747,46,38,5.725,4.845,11.466,9.754c28.373,24.242,56.313,49.386,82.333,76.32,2.1,2.185,4.206,4.37,6.276,6.571,1.269,1.362,2.554,2.708,3.806,4.085q12.167,13.063,23.617,26.76a505.47,505.47,0,0,1,53.942,77.587,424.872,424.872,0,0,1,47.367,137.234h0a464.925,464.925,0,0,1,5.725,52.522c.284,5.178.467,10.371.567,15.549v4.972C1709.143,780.819,1709.143,783.163,1709.127,785.569Z" transform="matrix(0.766, -0.643, 0.643, 0.766, 699.665, 545.438)" fill="#6c63ff" opacity="0.1"/>
  </g>
</svg>
