<svg xmlns="http://www.w3.org/2000/svg" xmlns:xlink="http://www.w3.org/1999/xlink" width="1920" height="1080" viewBox="0 0 1920 1080">
  <defs>
    <clipPath id="clip-Artboard_1">
      <rect width="1920" height="1080"/>
    </clipPath>
  </defs>
  <g id="Artboard_1" data-name="Artboard – 1" clip-path="url(#clip-Artboard_1)">
    <rect width="1920" height="1080" fill="#fff"/>
    <g id="undraw_exams_g4ow" transform="translate(557.16 194.654)">
      <path id="Path_321" data-name="Path 321" d="M1141.406,498.4v1.759a278.432,278.432,0,0,1-2.014,30.425.982.982,0,0,1,0,.184c-.1.841-.2,1.672-.312,2.513-.183,1.421-.377,2.832-.593,4.253a279.127,279.127,0,0,1-12.418,51.021h0a262.52,262.52,0,0,1-32.418,64.059q-6.376,9.182-13.581,17.774h0c-2.563,3.035-5.181,6-7.884,8.921q-2.843,3.064-5.794,6.031l-1.228,1.218a307.885,307.885,0,0,1-33.388,28.473c-19.386,14.42-40.259,26.965-61.466,38.6-1.206.667-2.423,1.324-3.64,1.933a1.817,1.817,0,0,1-.269.145c-28.821,15.638-58.709,29.748-89.5,41.047-33.711,12.4-68.52,21.417-104.234,25.361-49.78,5.49-100.163,1.024-149.642-6.649a1066.418,1066.418,0,0,1-121.7-26.1l-6.57-1.846q-5.105-1.459-10.2-2.977-30.771-9.133-60.852-20.3a833.465,833.465,0,0,1-143.6-69.191q-8.616-5.2-16.985-10.631-11.7-7.558-23.113-15.56l-4.7-3.267a467.712,467.712,0,0,1-55.811-46c-23.178-22.635-42.984-48.17-56.005-77.319q-3.08-6.872-5.644-14l-.162-.474c-.862-2.416-1.659-4.832-2.391-7.345q-1.616-5.393-2.833-10.921c-.172-.706-.323-1.411-.463-2.126a164.592,164.592,0,0,1-3.393-37.625,156.969,156.969,0,0,1,4.308-32.861h0a138.072,138.072,0,0,1,12.2-32.445h0a116.442,116.442,0,0,1,18.665-25.834h0A106.363,106.363,0,0,1,161.367,363.9c11.686-7.809,24.642-13.251,38.073-17.551h0c6.311-2.03,12.709-3.808,19.139-5.461,4.556-1.179,9.133-2.3,13.689-3.4l13.441-3.257c8.616-2.107,17.232-4.272,25.719-6.611,23.134-6.34,45.806-14.014,66.776-25.457,3.317-1.807,6.7-3.789,10.081-5.915q6.462-4.03,12.752-8.756h0c4.243-3.189,8.4-6.6,12.364-10.216.614-.561,1.217-1.121,1.82-1.691,3.231-3.054,6.365-6.253,9.273-9.578,1.422-1.624,2.8-3.276,4.114-4.958,1.82-2.329,3.543-4.7,5.137-7.133h0c7.992-12.178,12.924-25.612,12.343-39.771a55.083,55.083,0,0,0-.7-6.968c-1.4-8.534-2.746-16.865-3.737-25.013-4.157-33.7-2.4-64.262,25.784-92.976,35.046-35.692,90.05-42.97,140.121-40.119,144.763,8.215,276.548,82.383,392.36,170.682q15.024,11.443,29.683,23.2,3.694,2.957,7.4,5.954c18.31,14.8,36.339,30.145,53.13,46.585,1.357,1.334,2.714,2.668,4.05,4.011.819.831,1.648,1.653,2.456,2.494q7.852,7.974,15.24,16.334a308.8,308.8,0,0,1,34.809,47.358,250.087,250.087,0,0,1,30.566,83.765h0a268.954,268.954,0,0,1,3.694,32.058c.183,3.16.3,6.33.366,9.491v3.035C1141.417,495.5,1141.417,496.932,1141.406,498.4Z" transform="translate(-783.711 32.797)" fill="#6c63ff" opacity="0.1"/>
      <path id="Path_373" data-name="Path 373" d="M937.56,179l14,13S939.56,187,937.56,179Z" transform="translate(-401.716 -48.49)" opacity="0.1"/>
    </g>
    <path id="Path_374" data-name="Path 374" d="M1175.745,804.623v2.956q-.178,25.632-2.081,51.134a2.656,2.656,0,0,1,0,.309c-.1,1.413-.211,2.81-.323,4.223-.189,2.388-.39,4.759-.612,7.147a722.648,722.648,0,0,1-12.831,85.749h0a584.069,584.069,0,0,1-33.5,107.661q-6.588,15.431-14.033,29.872h0q-3.973,7.651-8.146,14.993-2.938,5.149-5.987,10.136l-1.269,2.047a430.7,430.7,0,0,1-34.5,47.853c-20.031,24.235-41.6,45.319-63.509,64.876-1.246,1.121-2.5,2.225-3.761,3.249a1.847,1.847,0,0,1-.278.244c-29.779,26.282-60.661,50-92.476,68.986-34.832,20.84-70.8,36-107.7,42.623-51.435,9.226-103.493,1.722-154.617-11.175a753.057,753.057,0,0,1-125.75-43.857l-6.788-3.1q-5.275-2.453-10.539-5-31.794-15.35-62.875-34.111c-52.042-31.286-101.758-70.251-148.374-116.286q-8.9-8.739-17.549-17.868-12.085-12.7-23.881-26.152l-4.852-5.49a638.509,638.509,0,0,1-57.667-77.3c-23.948-38.042-44.413-80.957-57.867-129.947q-3.183-11.549-5.831-23.537l-.167-.8c-.89-4.061-1.714-8.122-2.47-12.345q-1.669-9.064-2.927-18.355c-.178-1.186-.334-2.372-.479-3.573a445.657,445.657,0,0,1-3.505-63.236,421.638,421.638,0,0,1,4.451-55.228h0a333.9,333.9,0,0,1,12.608-54.529h0a221.624,221.624,0,0,1,19.285-43.419h0a146.976,146.976,0,0,1,18.173-24.787c12.074-13.125,25.462-22.27,39.339-29.5h0c6.521-3.411,13.131-6.4,19.775-9.177,4.707-1.982,9.437-3.866,14.144-5.718l13.888-5.474c8.9-3.541,17.805-7.18,26.574-11.11,23.9-10.656,47.329-23.553,69-42.785,3.428-3.038,6.922-6.367,10.416-9.941q6.677-6.773,13.176-14.716h0c4.385-5.36,8.68-11.094,12.775-17.169.634-.942,1.258-1.884,1.881-2.843,3.339-5.133,6.577-10.51,9.581-16.1,1.469-2.729,2.893-5.507,4.251-8.333,1.881-3.915,3.661-7.894,5.308-11.988h0c8.257-20.467,13.354-43.045,12.753-66.842q-.132-5.881-.723-11.711c-1.447-14.343-2.838-28.345-3.861-42.038-4.3-56.641-2.482-108,26.641-156.262,36.212-59.987,93.044-72.218,144.78-67.426C732.393,63.258,868.559,187.91,988.222,336.31q15.524,19.232,30.67,38.984,3.817,4.97,7.645,10.006c18.918,24.869,37.547,50.663,54.9,78.293,1.4,2.242,2.8,4.483,4.184,6.741.846,1.4,1.7,2.778,2.537,4.191q8.113,13.4,15.747,27.451a582.985,582.985,0,0,1,35.967,79.593A607.275,607.275,0,0,1,1171.45,722.35h0q2.9,26.77,3.817,53.879c.189,5.312.312,10.639.378,15.951v5.1C1175.756,799.75,1175.756,802.154,1175.745,804.623Z" transform="translate(2358.271 930.449) rotate(155)" fill="#6c63ff" opacity="0.1"/>
  </g>
</svg>
